<?xml version="1.0" encoding="utf-8"?>
<!-- Generator: Adobe Illustrator 16.0.0, SVG Export Plug-In . SVG Version: 6.00 Build 0)  -->
<!DOCTYPE svg PUBLIC "-//W3C//DTD SVG 1.1//EN" "http://www.w3.org/Graphics/SVG/1.1/DTD/svg11.dtd">
<svg version="1.1" id="Layer_1" xmlns="http://www.w3.org/2000/svg" xmlns:xlink="http://www.w3.org/1999/xlink" x="0px" y="0px"
	 width="277.436px" height="25.912px" viewBox="0 0 277.436 25.912" enable-background="new 0 0 277.436 25.912"
	 xml:space="preserve">
<path fill-rule="evenodd" clip-rule="evenodd" fill="#FFFFFF" d="M173.046,11.724c0,3.777-0.012,7.257,0.006,10.739
	c0.008,1.73-0.565,2.933-2.524,2.922c-1.968-0.011-2.491-1.245-2.488-2.96c0.013-6.312,0.017-12.623-0.009-18.935
	c-0.004-1.242,0.136-2.436,1.509-2.771c1.597-0.39,3.007,0.411,4.043,1.475c3.474,3.566,6.82,7.256,10.234,10.881
	c0.847,0.9,1.39,2.679,2.98,1.972c1.182-0.523,0.64-2.07,0.669-3.171c0.064-2.49,0.029-4.982,0.023-7.474
	c-0.006-1.731,0.062-3.628,2.308-3.686c2.442-0.062,2.81,1.846,2.808,3.832c-0.008,5.315,0.053,10.631-0.03,15.945
	c-0.026,1.709,0.692,3.958-1.622,4.735c-2.285,0.767-4.168-0.365-5.752-2.046c-2.96-3.142-5.922-6.281-8.949-9.356
	C175.487,13.05,174.945,11.896,173.046,11.724z"/>
<path fill-rule="evenodd" clip-rule="evenodd" fill="#FFFFFF" d="M252.486,13.363c0.105-15.089-1.449-12.554,12.682-12.814
	c2.521-0.047,5.016,0.068,7.393,0.947c3.92,1.449,6.014,5.1,4.237,8.77c-1.153,2.382-1.495,4.023,0.121,6.084
	c0.353,0.449,0.392,1.331,0.255,1.943c-0.544,2.445,1.813,6.619-2.448,6.883c-4.307,0.265-2.539-3.9-2.582-6.148
	c-0.069-3.635-2.333-3.355-4.72-3.476c-1.76-0.089-3.833,0.74-5.149-0.937c-0.474-0.603-0.356-1.981-0.036-2.825
	c0.576-1.513,2.164-1.136,3.43-1.432c2.146-0.502,6.127,1.62,6.043-2.037c-0.084-3.667-4.16-1.872-6.524-2.333
	c-0.642-0.125-1.342,0.065-1.994-0.033c-3.986-0.597-5.854,0.716-5.368,5.094c0.365,3.292,0.098,6.659,0.062,9.991
	c-0.021,1.979,0.284,4.391-2.733,4.295c-2.932-0.094-2.591-2.527-2.646-4.475C252.433,18.365,252.488,15.864,252.486,13.363z"/>
<path fill-rule="evenodd" clip-rule="evenodd" fill="#FFFFFF" d="M236.781,25.413c-12.58,0-12.599,0-12.575-12.727
	c0.026-14.377-1.123-11.906,12.263-12.117c2.657-0.042,5.316-0.045,7.973,0.008c1.914,0.038,4.365-0.526,4.534,2.459
	c0.186,3.273-2.442,2.471-4.265,2.514c-3.818,0.089-7.64,0.049-11.46,0.023c-2.046-0.014-3.676,0.392-3.598,2.946
	c0.089,2.878,2.317,1.547,3.694,1.875c0.314,0.075,0.666-0.024,0.992,0.017c2.127,0.272,5.435-0.953,5.523,2.477
	c0.105,4.027-3.537,2.221-5.676,2.691c-1.687,0.372-4.413-1.158-4.512,2.201c-0.096,3.304,2.533,2.383,4.334,2.432
	c3.652,0.098,7.309,0.005,10.962,0.042c1.802,0.019,3.941-0.255,4.016,2.462c0.085,3.105-2.278,2.672-4.233,2.69
	C242.096,25.432,239.438,25.413,236.781,25.413z"/>
<path fill-rule="evenodd" clip-rule="evenodd" fill="#FFFFFF" d="M40.647,25.411c-12.604,0-12.688,0-12.581-12.606
	c0.12-14.108-2.11-12.066,12.049-12.235c2.833-0.034,5.667,0.041,8.499-0.02c1.963-0.042,3.965,0.1,4.118,2.512
	c0.171,2.71-2.029,2.514-3.885,2.512c-3.999-0.002-7.999,0.022-11.998-0.006c-2.054-0.014-3.703,0.376-3.609,2.951
	c0.105,2.863,2.332,1.546,3.716,1.882c0.157,0.038,0.335-0.017,0.498,0.008c2.378,0.366,6.303-1.207,6.109,2.905
	c-0.173,3.675-3.92,1.752-6.107,2.265c-1.539,0.36-4.027-1.112-4.194,1.979c-0.174,3.223,2.274,2.65,4.192,2.672
	c3.666,0.043,7.332,0.002,10.998,0.02c2.006,0.01,4.387-0.205,4.286,2.744c-0.087,2.547-2.199,2.449-4.091,2.425
	C45.98,25.385,43.313,25.411,40.647,25.411z"/>
<path fill-rule="evenodd" clip-rule="evenodd" fill="#FFFFFF" d="M152.295,6.881c-1.979,5.124-3.624,9.415-5.3,13.694
	c-0.482,1.229-0.932,2.499-1.617,3.615c-0.945,1.539-2.627,1.553-4.02,1.031c-2.1-0.785-0.563-2.312-0.188-3.316
	c2.273-6.058,4.719-12.051,7.058-18.084c0.723-1.866,1.854-3.177,3.953-3.204c2.091-0.026,3.239,1.155,3.995,3.097
	c2.347,6.031,4.85,12.001,7.27,18.004c0.475,1.177,1.552,2.791-0.052,3.479c-1.696,0.729-3.667,0.358-4.54-1.819
	c-1.542-3.85-3.068-7.707-4.601-11.561C153.724,10.482,153.195,9.146,152.295,6.881z"/>
<path fill-rule="evenodd" clip-rule="evenodd" fill="#FFFFFF" d="M68.157,7.022c-1.999,5.219-3.675,9.675-5.422,14.105
	c-0.479,1.215-1.003,2.479-1.805,3.481c-0.939,1.177-2.494,1.064-3.712,0.603c-1.729-0.654-0.599-1.975-0.238-2.919
	c2.369-6.193,4.828-12.353,7.222-18.536c0.721-1.86,1.843-3.163,3.975-3.155c2.107,0.007,3.212,1.196,3.961,3.133
	c2.332,6.031,4.818,12.002,7.242,17.999c0.477,1.179,1.598,2.729-0.044,3.444c-1.708,0.743-3.646,0.408-4.512-1.803
	c-1.633-4.169-3.265-8.337-4.92-12.497C69.503,9.873,69.013,8.904,68.157,7.022z"/>
<path fill-rule="evenodd" clip-rule="evenodd" fill="#FFFFFF" d="M124.718,25.41c-12.673,0.001-12.673,0.001-12.672-12.589
	c0-2.495,0.026-4.989-0.008-7.484c-0.028-2.056-0.13-4.463,2.566-4.558c3.411-0.12,2.535,2.787,2.583,4.78
	c0.087,3.657,0.106,7.319,0,10.975c-0.081,2.773,1.039,3.877,3.851,3.752c3.817-0.169,7.648-0.046,11.474-0.038
	c2.016,0.004,4.351-0.194,4.253,2.759c-0.085,2.591-2.193,2.429-4.064,2.41C130.04,25.389,127.379,25.41,124.718,25.41z"/>
<path fill-rule="evenodd" clip-rule="evenodd" fill="#FFFFFF" d="M0.051,12.869c0.005-3.157,0.04-6.314-0.009-9.47
	C0.016,1.767,0.844,0.814,2.334,0.729C4.083,0.628,5.063,1.586,5.05,3.461c-0.029,4.153,0.15,8.314-0.053,12.458
	c-0.156,3.181,0.852,4.567,4.214,4.379c3.975-0.224,7.972-0.015,11.959-0.058c1.902-0.021,3.348,0.442,3.29,2.677
	c-0.058,2.242-1.557,2.537-3.434,2.515c-5.648-0.066-11.3-0.127-16.945,0.018c-3.033,0.078-4.229-1.109-4.067-4.109
	C0.166,18.524,0.046,15.694,0.051,12.869z"/>
<path fill-rule="evenodd" clip-rule="evenodd" fill="#FFFFFF" d="M154.936,21.54c0.044,2.643-0.896,3.424-2.399,3.48
	c-1.744,0.066-2.752-0.743-2.727-2.641c0.022-1.613,0.83-2.464,2.365-2.511C153.934,19.815,154.89,20.756,154.936,21.54z"/>
<path fill-rule="evenodd" clip-rule="evenodd" fill="#FFFFFF" d="M68.274,19.94c1.466,0.131,2.56,0.705,2.612,2.371
	c0.06,1.924-1.081,2.658-2.823,2.619c-1.62-0.037-2.361-0.977-2.327-2.562C65.771,20.716,66.764,20.057,68.274,19.94z"/>
<path fill-rule="evenodd" clip-rule="evenodd" fill="#FFFFFF" d="M217.157,3.921c-2.97-2.856-16.198-5.333-19.423-2.987
	c-3.643,2.649-0.937,7.085-1.682,10.643c-0.066,0.318-0.01,0.662-0.01,0.994c0,14.103,0,14.103,14.111,12.812
	c0.33-0.03,0.668-0.028,0.989-0.097c4.349-0.937,7.662-3.174,8.997-7.605C221.675,12.582,221.212,7.822,217.157,3.921z
	 M206.647,20.25c-5.472-0.012-5.286-0.016-5.524-8.618c-0.113-4.063,0.646-6.147,5.336-5.866c5.943,0.356,9.269,2.604,9.391,7.264
	C215.968,17.606,212.582,20.264,206.647,20.25z"/>
<path fill-rule="evenodd" clip-rule="evenodd" fill="#FFFFFF" d="M95.943,0.583c-2.828-0.11-5.668,0.062-8.497-0.039
	c-2.545-0.09-3.637,0.977-3.583,3.538c0.087,4.164-0.013,8.332,0.026,12.498c0.096,10.529-1.064,8.631,8.629,8.83c1,0,2,0.009,3,0
	c8.145-0.078,12.878-4.369,13.077-11.85C108.796,5.867,103.993,0.897,95.943,0.583z M94.27,20.355
	c-6.602,0.497-5.102-3.866-5.192-7.45c-0.089-3.579-1.197-7.544,4.961-7.143c6.054,0.395,9.364,2.558,9.428,7.257
	C103.533,17.85,100.401,19.893,94.27,20.355z"/>
</svg>
